<svg width="40" height="41" viewBox="0 0 40 41" fill="none" xmlns="http://www.w3.org/2000/svg">
<path d="M26.666 37.1666C26.666 38.0833 25.916 38.8333 24.9993 38.8333H3.33268C2.41602 38.8333 1.66602 38.0833 1.66602 37.1666C1.66602 36.25 2.41602 35.5 3.33268 35.5H24.9993C25.916 35.5 26.666 36.25 26.666 37.1666ZM38.1493 10.6666C38.2493 9.68329 37.4827 8.83329 36.4993 8.83329H29.9993V3.83329C29.9993 2.91663 29.2493 2.16663 28.3327 2.16663C27.416 2.16663 26.666 2.91663 26.666 3.83329V8.83329H20.166C19.1827 8.83329 18.416 9.68329 18.4993 10.6666L18.8993 14.6833L29.9993 25.7833L36.0327 31.8166L38.1493 10.6666ZM35.316 38.1833C35.4705 38.0291 35.5931 37.846 35.6767 37.6443C35.7604 37.4427 35.8034 37.2266 35.8034 37.0083C35.8034 36.79 35.7604 36.5739 35.6767 36.3722C35.5931 36.1706 35.4705 35.9875 35.316 35.8333L19.9993 20.5L15.016 15.5166L4.68268 5.18329C4.52849 5.02879 4.34534 4.90621 4.14372 4.82257C3.9421 4.73894 3.72596 4.69589 3.50768 4.69589C3.2894 4.69589 3.07326 4.73894 2.87164 4.82257C2.67002 4.90621 2.48687 5.02879 2.33268 5.18329C1.66602 5.83329 1.66602 6.88329 2.31602 7.53329L10.6327 15.85C6.36602 16.75 2.69935 19.3166 1.83268 23.5666C1.64935 24.5833 2.48268 25.5 3.49935 25.5H20.2827L23.616 28.8333H3.33268C2.41602 28.8333 1.66602 29.5833 1.66602 30.5C1.66602 31.4166 2.41602 32.1666 3.33268 32.1666H24.9993C25.5327 32.1666 25.9827 31.9 26.2993 31.5L32.966 38.1666C33.616 38.8333 34.666 38.8333 35.316 38.1833Z" fill="#313131"/>
</svg>
