<svg width="40" height="41" viewBox="0 0 40 41" fill="none" xmlns="http://www.w3.org/2000/svg">
<path d="M9.99935 33.8334C9.08268 33.8334 8.29824 33.5072 7.64602 32.855C6.99379 32.2028 6.66713 31.4178 6.66602 30.5V27.1667C6.66602 26.6945 6.82602 26.2989 7.14602 25.98C7.46602 25.6611 7.86157 25.5011 8.33268 25.5C8.80379 25.4989 9.1999 25.6589 9.52102 25.98C9.84213 26.3011 10.0016 26.6967 9.99935 27.1667V30.5H29.9993V27.1667C29.9993 26.6945 30.1593 26.2989 30.4793 25.98C30.7993 25.6611 31.1949 25.5011 31.666 25.5C32.1371 25.4989 32.5332 25.6589 32.8543 25.98C33.1755 26.3011 33.3349 26.6967 33.3327 27.1667V30.5C33.3327 31.4167 33.0066 32.2017 32.3543 32.855C31.7021 33.5084 30.9171 33.8345 29.9993 33.8334H9.99935ZM18.3327 13.5834L15.2077 16.7084C14.8743 17.0417 14.4788 17.2017 14.021 17.1884C13.5632 17.175 13.1671 17.0011 12.8327 16.6667C12.5271 16.3334 12.3671 15.9445 12.3527 15.5C12.3382 15.0556 12.4982 14.6667 12.8327 14.3334L18.8327 8.33336C18.9993 8.16669 19.1799 8.04891 19.3743 7.98003C19.5688 7.91114 19.7771 7.87614 19.9993 7.87503C20.2216 7.87391 20.4299 7.90891 20.6243 7.98003C20.8188 8.05114 20.9993 8.16891 21.166 8.33336L27.166 14.3334C27.4993 14.6667 27.6593 15.0556 27.646 15.5C27.6327 15.9445 27.4727 16.3334 27.166 16.6667C26.8327 17 26.4371 17.1739 25.9793 17.1884C25.5216 17.2028 25.1255 17.0428 24.791 16.7084L21.666 13.5834V25.5C21.666 25.9722 21.506 26.3684 21.186 26.6884C20.866 27.0084 20.4705 27.1678 19.9993 27.1667C19.5282 27.1656 19.1327 27.0056 18.8127 26.6867C18.4927 26.3678 18.3327 25.9722 18.3327 25.5V13.5834Z" fill="#313131"/>
</svg>
