<svg width="44" height="44" viewBox="0 0 44 44" fill="none" xmlns="http://www.w3.org/2000/svg">
<path d="M21.6671 22.5695C19.9911 22.5695 18.3837 23.2353 17.1986 24.4204C16.0135 25.6055 15.3477 27.2129 15.3477 28.8889C15.3477 30.5649 16.0135 32.1723 17.1986 33.3574C18.3837 34.5426 19.9911 35.2083 21.6671 35.2083C23.3431 35.2083 24.9505 34.5426 26.1356 33.3574C27.3207 32.1723 27.9865 30.5649 27.9865 28.8889C27.9865 27.2129 27.3207 25.6055 26.1356 24.4204C24.9505 23.2353 23.3431 22.5695 21.6671 22.5695ZM18.9588 28.8889C18.9588 28.1706 19.2441 27.4817 19.752 26.9738C20.2599 26.4659 20.9488 26.1806 21.6671 26.1806C22.3854 26.1806 23.0743 26.4659 23.5822 26.9738C24.0901 27.4817 24.3754 28.1706 24.3754 28.8889C24.3754 29.6072 24.0901 30.2961 23.5822 30.804C23.0743 31.3119 22.3854 31.5972 21.6671 31.5972C20.9488 31.5972 20.2599 31.3119 19.752 30.804C19.2441 30.2961 18.9588 29.6072 18.9588 28.8889Z" fill="#013D59"/>
<path d="M31.6448 9.23681L25.905 1.18945L4.79982 18.0497L3.62982 18.0371V18.0551H2.70898V39.7218H40.6257V18.0551H38.8887L35.4329 7.94584L31.6448 9.23681ZM35.0736 18.0551H16.9675L30.4531 13.4582L33.2012 12.5789L35.0736 18.0551ZM28.077 10.4538L14.1562 15.1988L25.1809 6.39126L28.077 10.4538ZM6.3201 32.8047V24.9686C7.08236 24.6996 7.77474 24.2634 8.34648 23.6919C8.91822 23.1205 9.35482 22.4284 9.62426 21.6663H33.7104C33.9796 22.4287 34.4161 23.1212 34.9878 23.693C35.5596 24.2647 36.2521 24.7012 37.0145 24.9704V32.8065C36.2521 33.0758 35.5596 33.5122 34.9878 34.084C34.4161 34.6558 33.9796 35.3483 33.7104 36.1107H9.62787C9.35737 35.3482 8.92003 34.6557 8.34777 34.0837C7.77551 33.5118 7.08276 33.0748 6.3201 32.8047Z" fill="#013D59"/>
</svg>
