<svg width="92" height="92" viewBox="0 0 92 92" fill="none" xmlns="http://www.w3.org/2000/svg">
<path d="M72.8327 30.6667H19.166C12.8027 30.6667 7.66602 35.8033 7.66602 42.1667V65.1667H22.9993V80.5H68.9993V65.1667H84.3327V42.1667C84.3327 35.8033 79.196 30.6667 72.8327 30.6667ZM61.3327 72.8333H30.666V53.6667H61.3327V72.8333ZM72.8327 46C70.7243 46 68.9993 44.275 68.9993 42.1667C68.9993 40.0583 70.7243 38.3333 72.8327 38.3333C74.941 38.3333 76.666 40.0583 76.666 42.1667C76.666 44.275 74.941 46 72.8327 46ZM68.9993 11.5H22.9993V26.8333H68.9993V11.5Z" fill="#313131"/>
</svg>
