<svg width="43" height="41" viewBox="0 0 43 41" fill="none" xmlns="http://www.w3.org/2000/svg">
<path d="M34.1166 13.8333H9.36294C6.42787 13.8333 4.05859 16.0667 4.05859 18.8333V28.8333H11.1311V35.5H32.3484V28.8333H39.4209V18.8333C39.4209 16.0667 37.0516 13.8333 34.1166 13.8333ZM28.8122 32.1667H14.6673V23.8333H28.8122V32.1667ZM34.1166 20.5C33.1441 20.5 32.3484 19.75 32.3484 18.8333C32.3484 17.9167 33.1441 17.1667 34.1166 17.1667C35.089 17.1667 35.8847 17.9167 35.8847 18.8333C35.8847 19.75 35.089 20.5 34.1166 20.5ZM32.3484 5.5H11.1311V12.1667H32.3484V5.5Z" fill="white"/>
</svg>
