<svg width="44" height="44" viewBox="0 0 44 44" fill="none" xmlns="http://www.w3.org/2000/svg">
<path d="M17.153 11.7361V17.1528H11.7363V11.7361H17.153ZM19.8613 9.02775H9.028V19.8611H19.8613V9.02775ZM17.153 26.1805V31.5972H11.7363V26.1805H17.153ZM19.8613 23.4722H9.028V34.3055H19.8613V23.4722ZM31.5974 11.7361V17.1528H26.1808V11.7361H31.5974ZM34.3058 9.02775H23.4724V19.8611H34.3058V9.02775ZM23.4724 23.4722H26.1808V26.1805H23.4724V23.4722ZM26.1808 26.1805H28.8891V28.8889H26.1808V26.1805ZM28.8891 23.4722H31.5974V26.1805H28.8891V23.4722ZM23.4724 28.8889H26.1808V31.5972H23.4724V28.8889ZM26.1808 31.5972H28.8891V34.3055H26.1808V31.5972ZM28.8891 28.8889H31.5974V31.5972H28.8891V28.8889ZM31.5974 26.1805H34.3058V28.8889H31.5974V26.1805ZM31.5974 31.5972H34.3058V34.3055H31.5974V31.5972ZM39.7224 12.6389H36.1113V7.2222H30.6947V3.61108H39.7224V12.6389ZM39.7224 39.7222V30.6944H36.1113V36.1111H30.6947V39.7222H39.7224ZM3.61133 39.7222H12.6391V36.1111H7.22244V30.6944H3.61133V39.7222ZM3.61133 3.61108V12.6389H7.22244V7.2222H12.6391V3.61108H3.61133Z" fill="#013D59"/>
</svg>
